<?xml version="1.0" encoding="UTF-8"?>
<!DOCTYPE svg PUBLIC "-//W3C//DTD SVG 1.1//EN" "http://www.w3.org/Graphics/SVG/1.1/DTD/svg11.dtd">
<!-- Creator: CorelDRAW 2019 (64-Bit) -->
<svg xmlns="http://www.w3.org/2000/svg" xml:space="preserve" width="10.2394mm" height="10.2394mm" version="1.1" style="shape-rendering:geometricPrecision; text-rendering:geometricPrecision; image-rendering:optimizeQuality; fill-rule:evenodd; clip-rule:evenodd"
viewBox="0 0 175.28 175.28"
 xmlns:xlink="http://www.w3.org/1999/xlink">
 <defs>
  <style type="text/css">
   <![CDATA[
    .fil0 {fill:none}
    .fil2 {fill:#339966}
    .fil1 {fill:#B3B3B3}
    .fil3 {fill:url(#id0)}
   ]]>
  </style>
  <linearGradient id="id0" gradientUnits="userSpaceOnUse" x1="78.15" y1="35.28" x2="91.71" y2="158.75">
   <stop offset="0" style="stop-opacity:1; stop-color:#FFEA83"/>
   <stop offset="0.0784314" style="stop-opacity:1; stop-color:#FFDD35"/>
   <stop offset="1" style="stop-opacity:1; stop-color:#FFA800"/>
  </linearGradient>
 </defs>
 <g id="图层_x0020_1">
  <metadata id="CorelCorpID_0Corel-Layer"/>
  <rect class="fil0" width="175.28" height="175.28"/>
  <g id="_2548394784016">
   <path class="fil1" d="M125.34 134.07c2.05,-1.63 4.37,-2.82 3.93,-6.94 -0.77,-7.15 -11.44,-7.21 -12.36,-0.11 -0.58,4.44 2.14,5.55 4.39,7.32 0.14,10.1 -3.11,10.63 -10.32,14.18 -6.75,3.33 -15.98,-5.65 -16.37,-6.35 -1.24,-2.19 -0.79,-42.72 -0.52,-48.47 1.32,0.26 4.09,1.72 5.22,2.54 2.73,1.97 0.48,2.88 2.59,5.86 2.69,3.82 9.27,3.04 10.86,-1.5 1.72,-4.92 -2.21,-9.61 -7.3,-8.38 -3.43,0.82 -2.43,2.32 -11.37,-3.62 -0.32,-14.57 -0.03,-29.41 -0.05,-44.01 -0.01,-4 -0.85,-6.55 1.96,-8.67 16.3,-12.28 15.89,2.03 23.33,-4.31 -2.93,-1.58 -5.29,-3.46 -8.72,-4.82 -4.33,-1.72 -6.57,0.02 -10.07,1.81 -11.36,5.81 -10.6,6.86 -10.58,16.55l0.01 81.86c0,4.24 -0.28,9.47 0.01,13.58 0.34,4.82 2.92,5.93 6.07,8.05 7.68,5.16 9.7,7.29 18.72,2.59 11.01,-5.74 10.3,-6.2 10.59,-17.15z"/>
   <path class="fil1" d="M121.6 108.37c-2.46,1.75 -8,3.48 -12.36,6.82 -4.73,3.63 -3.83,8.29 -3.86,15.19 -0.41,2.55 -4.33,2.16 -4.15,7.32 0.26,7.79 11.76,7.76 12.48,0.52 0.46,-4.63 -2.3,-5.17 -4.34,-7.28 -0.2,-9.23 -0.67,-11.01 5.96,-14.74 6.91,-3.89 8.29,-4.64 15.12,-0.3 6.78,4.32 7.19,4.49 6.42,15.06 -0.27,3.75 -1.38,5.22 -3.84,6.86 -4.52,3.01 -3.38,0.22 -4.39,6.79 14.74,-4.63 12.79,-12.5 11.96,-25.6 3.08,-0.81 10.55,-4.96 12.63,-6.7 4.5,-3.75 3.6,-9.11 3.73,-16.23 -7.85,3.89 -1.88,7.29 -5.52,12.2 -1.02,1.37 -8.73,5.91 -11,6.49 -3.83,0.98 -9.3,-3.27 -11.85,-4.94 -4.5,-2.93 -3.44,-7.33 -3.31,-14.06l-3.68 0.19c-1.02,3.4 -0.37,9.1 0,12.41z"/>
   <path class="fil1" d="M112.41 44.45c8.22,-2.86 7.65,-8.66 20.34,0.28 4.08,2.87 3.9,5.02 3.66,11.14 -0.24,6.34 -0.62,7.09 -5.06,9.74 -7.01,4.18 -4.1,-1.62 -10.46,0.79 -3.31,1.25 -5.46,5.99 -2.62,9.73 2.38,3.13 7.63,3.27 10.02,-0.04 3.65,-5.06 -2.97,-1.96 6.74,-7.9 4.06,-2.48 4.91,-3.42 5.24,-9.47 0.22,-3.94 0.89,-10.44 -1.03,-13.68 -1.58,-2.66 -13.6,-11.1 -19.34,-8.95 -2.6,0.97 -8.45,4.73 -9.71,4.92 -3.31,0.5 -8.19,-2.29 -9.86,3.81 -2.55,9.32 13.16,12.67 12.08,-0.36z"/>
   <path class="fil1" d="M105.36 73.93c0,6.84 0.02,8.47 4.66,11.59 11.1,7.45 12.2,7.63 20.42,3.48l7.11 -4.17c1.58,-0.97 1.27,-0.6 2.3,-1.87l-1.36 -2.95c-2.58,0.47 -8.95,4.89 -12.2,6.51 -4.85,2.43 -10.06,-1.64 -13.37,-3.94 -4.28,-2.97 -4.29,-8.18 -3.43,-14.74 0.71,-5.43 9.81,-8.8 9.93,-8.81 0.01,0 10.66,4.27 10.91,-4.86 0.18,-6.57 -7.96,-8.5 -11.14,-4.08 -2.39,3.32 0.36,3.96 -2.99,6.02 -2.14,1.32 -3.93,2.07 -6.09,3.51 -5.27,3.51 -4.76,6.5 -4.76,14.31z"/>
   <path class="fil1" d="M141.1 69.2c2.9,1.51 8.77,4.23 9.65,7.7 1.18,4.69 0.97,12.72 -2.43,15.27 -8.37,6.26 -5.78,-1.22 -12.51,1.59 -4.54,1.9 -5.22,9.01 -0.21,11.37 7.42,3.49 9.13,-5.79 10.03,-6.56 3.1,-2.64 8.21,-2.97 9.09,-9.07 0.58,-4.01 1.08,-13 -0.77,-16.28 -1.4,-2.48 -8.21,-6.72 -11.19,-7.53 -0.3,0.88 -0.35,0.84 -0.73,1.63l-0.68 1.39c-0.07,0.13 -0.17,0.33 -0.24,0.49z"/>
   <path class="fil1" d="M49.73 134.07c-2.05,-1.63 -4.37,-2.82 -3.93,-6.94 0.77,-7.15 11.44,-7.21 12.37,-0.11 0.58,4.44 -2.14,5.55 -4.39,7.32 -0.14,10.1 3.11,10.63 10.32,14.18 6.75,3.33 15.98,-5.65 16.37,-6.35 1.24,-2.19 0.79,-42.72 0.52,-48.47 -1.32,0.26 -4.09,1.72 -5.22,2.54 -2.74,1.97 -0.48,2.88 -2.59,5.86 -2.69,3.82 -9.27,3.04 -10.86,-1.5 -1.72,-4.92 2.21,-9.61 7.3,-8.38 3.43,0.82 2.43,2.32 11.37,-3.62 0.32,-14.57 0.03,-29.41 0.05,-44.01 0.01,-4 0.85,-6.55 -1.96,-8.67 -16.3,-12.28 -15.89,2.03 -23.33,-4.31 2.93,-1.58 5.29,-3.46 8.72,-4.82 4.33,-1.72 6.58,0.02 10.07,1.81 11.36,5.81 10.6,6.86 10.58,16.55l-0.01 81.86c0,4.24 0.28,9.47 -0.01,13.58 -0.34,4.82 -2.92,5.93 -6.07,8.05 -7.68,5.16 -9.7,7.29 -18.72,2.59 -11.01,-5.74 -10.3,-6.2 -10.59,-17.15z"/>
   <path class="fil1" d="M53.47 108.37c2.46,1.75 8,3.48 12.36,6.82 4.73,3.63 3.83,8.29 3.86,15.19 0.41,2.55 4.33,2.16 4.15,7.32 -0.26,7.79 -11.77,7.76 -12.49,0.52 -0.46,-4.63 2.3,-5.17 4.34,-7.28 0.2,-9.23 0.67,-11.01 -5.96,-14.74 -6.91,-3.89 -8.29,-4.64 -15.12,-0.3 -6.78,4.32 -7.19,4.49 -6.42,15.06 0.27,3.75 1.38,5.22 3.84,6.86 4.52,3.01 3.39,0.22 4.39,6.79 -14.74,-4.63 -12.79,-12.5 -11.97,-25.6 -3.08,-0.81 -10.55,-4.96 -12.63,-6.7 -4.5,-3.75 -3.6,-9.11 -3.73,-16.23 7.85,3.89 1.88,7.29 5.52,12.2 1.02,1.37 8.73,5.91 11,6.49 3.83,0.98 9.3,-3.27 11.85,-4.94 4.5,-2.93 3.45,-7.33 3.31,-14.06l3.68 0.19c1.02,3.4 0.37,9.1 -0,12.41z"/>
   <path class="fil1" d="M62.66 44.45c-8.22,-2.86 -7.65,-8.66 -20.34,0.28 -4.08,2.87 -3.9,5.02 -3.66,11.14 0.24,6.34 0.62,7.09 5.06,9.74 7.01,4.18 4.1,-1.62 10.46,0.79 3.31,1.25 5.47,5.99 2.62,9.73 -2.38,3.13 -7.63,3.27 -10.02,-0.04 -3.65,-5.06 2.97,-1.96 -6.74,-7.9 -4.06,-2.48 -4.91,-3.42 -5.24,-9.47 -0.22,-3.94 -0.89,-10.44 1.03,-13.68 1.58,-2.66 13.6,-11.1 19.34,-8.95 2.6,0.97 8.45,4.73 9.71,4.92 3.31,0.5 8.19,-2.29 9.86,3.81 2.55,9.32 -13.16,12.67 -12.08,-0.36z"/>
   <path class="fil1" d="M69.7 73.93c-0,6.84 -0.02,8.47 -4.66,11.59 -11.09,7.45 -12.2,7.63 -20.42,3.48l-7.11 -4.17c-1.58,-0.97 -1.27,-0.6 -2.3,-1.87l1.36 -2.95c2.58,0.47 8.95,4.89 12.2,6.51 4.85,2.43 10.06,-1.64 13.37,-3.94 4.28,-2.97 4.29,-8.18 3.43,-14.74 -0.71,-5.43 -9.82,-8.8 -9.93,-8.81 -0.01,0 -10.66,4.27 -10.91,-4.86 -0.18,-6.57 7.96,-8.5 11.14,-4.08 2.39,3.32 -0.36,3.96 2.99,6.02 2.13,1.32 3.93,2.07 6.09,3.51 5.27,3.51 4.76,6.5 4.76,14.31z"/>
   <path class="fil1" d="M33.96 69.2c-2.9,1.51 -8.77,4.23 -9.64,7.7 -1.18,4.69 -0.97,12.72 2.43,15.27 8.37,6.26 5.78,-1.22 12.51,1.59 4.54,1.9 5.23,9.01 0.21,11.37 -7.42,3.49 -9.13,-5.79 -10.03,-6.56 -3.1,-2.64 -8.21,-2.97 -9.09,-9.07 -0.58,-4.01 -1.08,-13 0.77,-16.28 1.4,-2.48 8.21,-6.72 11.19,-7.53 0.3,0.88 0.35,0.84 0.73,1.63l0.69 1.39c0.06,0.13 0.17,0.33 0.24,0.49z"/>
  </g>
  <polygon class="fil2" points="115.41,22.3 168.11,22.3 119.93,69.23 117.04,111.47 24.47,169.72 82.2,103.16 73.79,69.28 "/>
  <polygon class="fil3" points="99.56,16.86 161.77,16.86 113.59,63.8 110.7,106.04 18.13,164.29 75.86,97.72 67.45,63.85 "/>
 </g>
</svg>
