<?xml version="1.0" encoding="UTF-8"?>
<!DOCTYPE svg PUBLIC "-//W3C//DTD SVG 1.1//EN" "http://www.w3.org/Graphics/SVG/1.1/DTD/svg11.dtd">
<!-- Creator: CorelDRAW 2019 (64-Bit) -->
<svg xmlns="http://www.w3.org/2000/svg" xml:space="preserve" width="13.01mm" height="13.01mm" version="1.1" style="shape-rendering:geometricPrecision; text-rendering:geometricPrecision; image-rendering:optimizeQuality; fill-rule:evenodd; clip-rule:evenodd"
viewBox="0 0 161.68 161.68"
 xmlns:xlink="http://www.w3.org/1999/xlink">
 <defs>
  <style type="text/css">
   <![CDATA[
    .fil1 {fill:black}
    .fil2 {fill:url(#id0)}
    .fil0 {fill:url(#id1)}
    .fil3 {fill:url(#id2)}
   ]]>
  </style>
  <linearGradient id="id0" gradientUnits="userSpaceOnUse" x1="68.61" y1="136.01" x2="36.09" y2="79.68">
   <stop offset="0" style="stop-opacity:1; stop-color:#FFFF99"/>
   <stop offset="1" style="stop-opacity:1; stop-color:#F5D923"/>
  </linearGradient>
  <linearGradient id="id1" gradientUnits="userSpaceOnUse" x1="14.37" y1="13.79" x2="227.77" y2="207.13">
   <stop offset="0" style="stop-opacity:1; stop-color:#006633"/>
   <stop offset="1" style="stop-opacity:1; stop-color:white"/>
  </linearGradient>
  <linearGradient id="id2" gradientUnits="userSpaceOnUse" x1="69.29" y1="136.01" x2="132.9" y2="27.23">
   <stop offset="0" style="stop-opacity:1; stop-color:#FFFF99"/>
   <stop offset="1" style="stop-opacity:1; stop-color:#F5DE0C"/>
  </linearGradient>
 </defs>
 <g id="图层_x0020_1">
  <metadata id="CorelCorpID_0Corel-Layer"/>
  <rect class="fil0" x="-0" y="-0" width="161.68" height="161.68" rx="17.11" ry="17.11"/>
  <g id="_3043690325360">
   <polygon class="fil1" points="25.99,82.05 54.81,82.09 87.32,138.4 58.52,138.4 "/>
   <polygon class="fil1" points="110.32,49.86 59.2,138.4 88,138.4 131.92,62.33 144.11,69.37 137.21,29.62 99.34,43.52 "/>
  </g>
  <polygon class="fil2" points="21.68,79.66 50.5,79.7 83.01,136.01 54.21,136.01 "/>
  <polygon class="fil3" points="106.01,47.47 54.89,136.01 83.69,136.01 127.61,59.94 139.8,66.98 132.9,27.23 95.03,41.13 "/>
 </g>
</svg>
